0
SECTION
2
HEADER
9
$INSUNITS
70
4
9
$ACADVER
1
AC1014
9
$HANDSEED
5
FFFF
0
ENDSEC
0
SECTION
2
TABLES
0
TABLE
2
VPORT
5
8
100
AcDbSymbolTable
0
ENDTAB
0
TABLE
2
LTYPE
5
5
100
AcDbSymbolTable
0
LTYPE
5
14
100
AcDbSymbolTableRecord
100
AcDbLinetypeTableRecord
2
BYBLOCK
70
0
0
LTYPE
5
15
100
AcDbSymbolTableRecord
100
AcDbLinetypeTableRecord
2
BYLAYER
70
0
0
LTYPE
5
16
100
AcDbSymbolTableRecord
100
AcDbLinetypeTableRecord
2
DASHED
70
0
3
Dashed __ __ __ __ __ __ __ __ __ __ __ __ __ _
72
65
73
2
40
0.75
49
0.5
74
0
49
-0.25
74
0
0
ENDTAB
0
TABLE
2
LAYER
5
2
100
AcDbSymbolTable
70
2
0
LAYER
5
50
100
AcDbSymbolTableRecord
100
AcDbLayerTableRecord
2
0
70
0
62
7
6
CONTINUOUS
0
ENDTAB
0
TABLE
2
STYLE
5
3
100
AcDbSymbolTable
70
1
0
STYLE
5
11
100
AcDbSymbolTableRecord
100
AcDbTextStyleTableRecord
2
STANDARD
70
0
0
ENDTAB
0
TABLE
2
VIEW
5
6
100
AcDbSymbolTable
70
0
0
ENDTAB
0
TABLE
2
UCS
5
7
100
AcDbSymbolTable
70
0
0
ENDTAB
0
TABLE
2
APPID
5
9
100
AcDbSymbolTable
70
2
0
APPID
5
12
100
AcDbSymbolTableRecord
100
AcDbRegAppTableRecord
2
ACAD
70
0
0
ENDTAB
0
TABLE
2
DIMSTYLE
5
A
100
AcDbSymbolTable
70
1
0
ENDTAB
0
TABLE
2
BLOCK_RECORD
5
1
100
AcDbSymbolTable
70
1
0
BLOCK_RECORD
5
1F
100
AcDbSymbolTableRecord
100
AcDbBlockTableRecord
2
*MODEL_SPACE
0
BLOCK_RECORD
5
1B
100
AcDbSymbolTableRecord
100
AcDbBlockTableRecord
2
*PAPER_SPACE
0
ENDTAB
0
ENDSEC
0
SECTION
2
BLOCKS
0
BLOCK
5
20
100
AcDbEntity
100
AcDbBlockBegin
2
*MODEL_SPACE
0
ENDBLK
5
21
100
AcDbEntity
100
AcDbBlockEnd
0
BLOCK
5
1C
100
AcDbEntity
100
AcDbBlockBegin
2
*PAPER_SPACE
0
ENDBLK
5
1D
100
AcDbEntity
100
AcDbBlockEnd
0
ENDSEC
0
SECTION
2
ENTITIES
0
POINT
5
100
100
AcDbEntity
8
0
100
AcDbPoint
10
0
20
0
30
0
0
POINT
5
101
100
AcDbEntity
8
0
100
AcDbPoint
10
0
20
0
30
0
0
POINT
5
102
100
AcDbEntity
8
0
100
AcDbPoint
10
185
20
-4.3140830754274083e-31
30
0
0
POINT
5
103
100
AcDbEntity
8
0
100
AcDbPoint
10
1.2656542480726783e-14
20
285
30
0
0
POINT
5
104
100
AcDbEntity
8
0
100
AcDbPoint
10
50.000000000000014
20
225.00000000000014
30
0
0
POINT
5
105
100
AcDbEntity
8
0
100
AcDbPoint
10
50.000000000000007
20
205.00000000000014
30
0
0
POINT
5
106
100
AcDbEntity
8
0
100
AcDbPoint
10
40.000000000000007
20
205.00000000000014
30
0
0
POINT
5
107
100
AcDbEntity
8
0
100
AcDbPoint
10
145
20
205.00000000000014
30
0
0
POINT
5
108
100
AcDbEntity
8
0
100
AcDbPoint
10
135
20
205.00000000000014
30
0
0
POINT
5
109
100
AcDbEntity
8
0
100
AcDbPoint
10
134.99999999999997
20
225.00000000000014
30
0
0
POINT
5
110
100
AcDbEntity
8
0
100
AcDbPoint
10
50.000000000000014
20
59.999999999999929
30
0
0
POINT
5
111
100
AcDbEntity
8
0
100
AcDbPoint
10
40
20
79.999999999999929
30
0
0
POINT
5
112
100
AcDbEntity
8
0
100
AcDbPoint
10
50
20
79.999999999999943
30
0
0
POINT
5
113
100
AcDbEntity
8
0
100
AcDbPoint
10
134.99999999999997
20
59.999999999999922
30
0
0
POINT
5
114
100
AcDbEntity
8
0
100
AcDbPoint
10
135.00000000000003
20
79.999999999999915
30
0
0
POINT
5
115
100
AcDbEntity
8
0
100
AcDbPoint
10
140.00000000000003
20
44.999999999999922
30
0
0
POINT
5
116
100
AcDbEntity
8
0
100
AcDbPoint
10
145.00000000000003
20
79.999999999999929
30
0
0
LWPOLYLINE
5
117
100
AcDbEntity
8
0
100
AcDbPolyline
90
8
70
1
43
0.0
10
44.999999999999986
20
0
10
140
20
-7.9936057773011271e-14
42
0.41421356237309503
10
185
20
44.999999999999929
10
185
20
240.00000000000014
42
0.41421356237309503
10
140
20
285.00000000000011
10
45.000000000000007
20
285.00000000000011
42
0.41421356237309503
10
1.0880185641326534e-14
20
240.00000000000014
10
-8.8817841970012523e-15
20
45
42
0.41421356237309537
0
CIRCLE
5
118
100
AcDbEntity
8
0
100
AcDbCircle
10
172
20
45
30
0
40
2
210
0
220
0
230
1
0
CIRCLE
5
119
100
AcDbEntity
8
0
100
AcDbCircle
10
172
20
93
30
0
40
2
210
0
220
0
230
1
0
LINE
5
120
100
AcDbEntity
8
0
100
AcDbLine
10
92.5
20
285.00000000000011
30
0
11
92.5
21
0
31
0
6
DASHED
0
LINE
5
121
100
AcDbEntity
8
0
100
AcDbLine
10
6.3282712403633954e-15
20
142.50000000000003
30
0
11
185
21
142.50000000000006
31
0
6
DASHED
0
CIRCLE
5
122
100
AcDbEntity
8
0
100
AcDbCircle
10
13.000000000000007
20
45
30
0
40
2
210
0
220
0
230
1
0
CIRCLE
5
123
100
AcDbEntity
8
0
100
AcDbCircle
10
13.000000000000007
20
93
30
0
40
2
210
0
220
0
230
1
0
CIRCLE
5
124
100
AcDbEntity
8
0
100
AcDbCircle
10
171.99999999999994
20
192.00000000000017
30
0
40
2
210
0
220
0
230
1
0
CIRCLE
5
125
100
AcDbEntity
8
0
100
AcDbCircle
10
171.99999999999994
20
240.00000000000017
30
0
40
2
210
0
220
0
230
1
0
CIRCLE
5
126
100
AcDbEntity
8
0
100
AcDbCircle
10
12.999999999999988
20
240.00000000000011
30
0
40
2
210
0
220
0
230
1
0
CIRCLE
5
127
100
AcDbEntity
8
0
100
AcDbCircle
10
12.999999999999996
20
192.00000000000011
30
0
40
2
210
0
220
0
230
1
0
CIRCLE
5
128
100
AcDbEntity
8
0
100
AcDbCircle
10
8.0000000000000107
20
142.50000000000003
30
0
40
2.0000000000000044
210
0
220
0
230
1
0
CIRCLE
5
129
100
AcDbEntity
8
0
100
AcDbCircle
10
50
20
8
30
0
40
1.9999999999999973
210
0
220
0
230
1
0
CIRCLE
5
130
100
AcDbEntity
8
0
100
AcDbCircle
10
49.999999999999986
20
277.00000000000011
30
0
40
1.9999999999999973
210
0
220
0
230
1
0
CIRCLE
5
131
100
AcDbEntity
8
0
100
AcDbCircle
10
177
20
142.50000000000003
30
0
40
2.0000000000000044
210
0
220
0
230
1
0
CIRCLE
5
132
100
AcDbEntity
8
0
100
AcDbCircle
10
135
20
8
30
0
40
1.9999999999999973
210
0
220
0
230
1
0
CIRCLE
5
133
100
AcDbEntity
8
0
100
AcDbCircle
10
135.00000000000003
20
277.00000000000011
30
0
40
1.9999999999999973
210
0
220
0
230
1
0
LWPOLYLINE
5
134
100
AcDbEntity
8
0
100
AcDbPolyline
90
8
70
1
43
0.0
10
42.499999999999972
20
225.00000000000014
10
48.100000000000016
20
225.00000000000014
42
-0.41421356237309503
10
50.000000000000028
20
223.10000000000014
10
50.000000000000028
20
207.50000000000011
42
-0.41421356237309503
10
47.500000000000064
20
205.00000000000014
10
42.499999999999972
20
205.00000000000014
42
-0.41421356237309503
10
40.000000000000007
20
207.50000000000011
10
40.000000000000007
20
222.50000000000017
42
-0.41421356237309503
0
LWPOLYLINE
5
135
100
AcDbEntity
8
0
100
AcDbPolyline
90
8
70
1
43
0.0
10
136.89999999999998
20
225.00000000000014
42
0.41421356237309503
10
134.99999999999997
20
223.10000000000014
10
134.99999999999997
20
207.50000000000011
42
0.41421356237309503
10
137.49999999999994
20
205.00000000000014
10
142.50000000000003
20
205.00000000000014
42
0.41421356237309503
10
145
20
207.50000000000011
10
145
20
222.50000000000017
42
0.41421356237309503
10
142.50000000000003
20
225.00000000000014
0
LWPOLYLINE
5
136
100
AcDbEntity
8
0
100
AcDbPolyline
90
8
70
1
43
0.0
10
50
20
77.499999999999986
42
0.41421356237309709
10
47.500000000000014
20
79.999999999999943
10
42.499999999999986
20
79.999999999999929
42
0.41421356237309709
10
40
20
77.499999999999972
10
40.000000000000014
20
62.499999999999929
42
0.41421356237310125
10
42.500000000000014
20
59.999999999999929
10
48.100000000000023
20
59.999999999999929
42
0.41421356237309503
10
50.000000000000036
20
61.899999999999942
0
LWPOLYLINE
5
137
100
AcDbEntity
8
0
100
AcDbPolyline
90
8
70
1
43
0.0
10
145.00000000000003
20
77.499999999999972
42
0.41421356237309503
10
142.50000000000006
20
79.999999999999929
10
137.49999999999994
20
79.999999999999915
42
0.41421356237309503
10
134.99999999999997
20
77.499999999999943
10
134.99999999999997
20
61.899999999999935
42
0.41421356237309503
10
136.90000000000001
20
59.999999999999922
10
142.50000000000006
20
59.999999999999929
42
0.41421356237309503
10
145.00000000000003
20
62.499999999999893
0
ENDSEC
0
SECTION
2
OBJECTS
0
DICTIONARY
5
C
100
AcDbDictionary
3
ACAD_GROUP
350
D
3
ACAD_MLINESTYLE
350
17
0
DICTIONARY
5
D
100
AcDbDictionary
0
DICTIONARY
5
1A
330
C
100
AcDbDictionary
0
DICTIONARY
5
17
100
AcDbDictionary
0
ENDSEC
0
EOF
